<?xml version="1.0" encoding="utf-8"?>
<!-- Generator: Adobe Illustrator 15.1.0, SVG Export Plug-In . SVG Version: 6.00 Build 0)  -->
<!DOCTYPE svg PUBLIC "-//W3C//DTD SVG 1.1//EN" "http://www.w3.org/Graphics/SVG/1.1/DTD/svg11.dtd">
<svg version="1.1" id="Layer_1" xmlns="http://www.w3.org/2000/svg" xmlns:xlink="http://www.w3.org/1999/xlink" x="0px" y="0px"
	 width="17px" height="96px" viewBox="0 0 17 96" enable-background="new 0 0 17 96" xml:space="preserve">
<g>
	<defs>
		<rect id="SVGID_1_" x="-0.062" y="1.201" width="15.985" height="92.445"/>
	</defs>
	<clipPath id="SVGID_2_">
		<use xlink:href="#SVGID_1_"  overflow="visible"/>
	</clipPath>
	<path clip-path="url(#SVGID_2_)" fill="#722282" d="M3.842,88.844c2.265,1.293,3.449,1.916,8.063,4.295
		c4.612,2.381,3.991-4.41,3.991-4.41V72.954c0-5.014-1.159-4.698-4.279-6.224c-2.356-1.15-2.886-3.717-2.886-4.595V23.548
		c1.501-1.072,1.185-5.612,1.185-11.052c0-6.237,0.415-11.293-1.968-11.293c-2.385,0-1.969,5.056-1.969,11.293
		c0,5.437-0.317,9.976,1.183,11.049v38.591c0,1.314-0.748,3.731-2.945,4.595c-3.233,1.274-4.28,1.21-4.28,6.224
		c0,0,0.05,7.566,0.05,11.085C-0.013,86.676,2.674,88.175,3.842,88.844 M11.571,80.021c0-5.396,0.364-9.776,0.815-9.776
		c0.454,0,0.82,4.38,0.82,9.776c0,7.212,0.123,9.781-0.82,9.781C11.448,89.803,11.571,87.461,11.571,80.021 M9.416,70.245
		c0.454,0,0.819,4.38,0.819,9.776c0.013,5.916,0.045,8.075-0.819,8.075s-0.832-1.979-0.819-8.073
		C8.598,74.625,8.961,70.245,9.416,70.245 M7.948,1.982c0.38,0,0.69,0.641,0.69,1.429c0,0.786-0.31,1.425-0.69,1.425
		c-0.382,0-0.692-0.639-0.692-1.425C7.255,2.623,7.566,1.982,7.948,1.982 M5.619,80.023c0.006-5.398,0.372-9.778,0.825-9.778
		c0.451,0,0.819,4.38,0.819,9.776c0.007,4.633-0.047,6.374-0.819,6.374C5.664,86.396,5.612,84.789,5.619,80.023 M2.65,80.023
		c0.004-5.376,0.367-9.778,0.82-9.778c0.452,0,0.816,4.402,0.817,9.778c-0.017,3.36-0.147,4.669-0.817,4.669
		C2.793,84.692,2.667,83.479,2.65,80.023"/>
</g>
</svg>
