<?xml version="1.0" encoding="utf-8"?>
<!-- Generator: Adobe Illustrator 15.1.0, SVG Export Plug-In . SVG Version: 6.00 Build 0)  -->
<!DOCTYPE svg PUBLIC "-//W3C//DTD SVG 1.1//EN" "http://www.w3.org/Graphics/SVG/1.1/DTD/svg11.dtd">
<svg version="1.1" id="Layer_1" xmlns="http://www.w3.org/2000/svg" xmlns:xlink="http://www.w3.org/1999/xlink" x="0px" y="0px"
	 width="50px" height="56px" viewBox="15 16.5 50 56" enable-background="new 15 16.5 50 56" xml:space="preserve">
<g>
	<g>
		<g>
			<defs>
				<rect id="SVGID_1_" x="15.371" y="16.347" width="49.628" height="55.676"/>
			</defs>
			<clipPath id="SVGID_2_">
				<use xlink:href="#SVGID_1_"  overflow="visible"/>
			</clipPath>
			<path clip-path="url(#SVGID_2_)" fill="#FFFFFF" d="M64.677,36.681c0,11.023-8.938,19.96-19.962,19.96
				s-19.963-8.938-19.963-19.96c0-11.025,8.938-19.962,19.963-19.962C55.738,16.719,64.677,25.657,64.677,36.681"/>
		</g>
	</g>
	<g>
		<g>
			<defs>
				<rect id="SVGID_3_" x="15.371" y="16.347" width="49.628" height="55.676"/>
			</defs>
			<clipPath id="SVGID_4_">
				<use xlink:href="#SVGID_3_"  overflow="visible"/>
			</clipPath>
			<path clip-path="url(#SVGID_4_)" fill="#1D1D1B" d="M59.653,36.448c0-8.228-6.667-14.895-14.896-14.895
				c-8.223,0-14.893,6.666-14.893,14.895c0,8.225,6.67,14.891,14.893,14.891C52.986,51.339,59.653,44.673,59.653,36.448
				 M60.486,49.396c-6.401,7.917-17.533,9.756-26.049,4.741c-0.038,0.768-0.306,1.533-0.828,2.178L22.028,70.633
				c-1.3,1.607-3.658,1.856-5.266,0.555c-1.609-1.298-1.858-3.656-0.558-5.266l11.58-14.318c0.521-0.646,1.213-1.066,1.958-1.263
				c-6.685-7.277-7.212-18.546-0.814-26.464c7.047-8.711,19.828-10.064,28.538-3.016C66.18,27.907,67.533,40.685,60.486,49.396"/>
		</g>
	</g>
	<g>
		<g>
			<defs>
				<rect id="SVGID_5_" x="15.371" y="16.347" width="49.628" height="55.676"/>
			</defs>
			<clipPath id="SVGID_6_">
				<use xlink:href="#SVGID_5_"  overflow="visible"/>
			</clipPath>
			<path clip-path="url(#SVGID_6_)" fill="#1D1D1B" d="M47.991,34.787c0.913,0.508,1.628-1.32,3.152-0.61
				c1.522,0.713,0.05,0.459,0.711,1.118c1.827,1.834,2.877,1.468,2.877,1.468c0-5.643-4.57-10.216-10.217-10.216
				c0,0-0.695,1.533,0.836,1.938c1.521,0.406,2.123,2.26,1.215,3.169c-0.906,0.902-1.367-0.323-2.207,0.695
				c-0.84,1.014-0.13,2.847,0.887,2.847C46.265,35.196,47.075,34.28,47.991,34.787 M45.478,39.999
				c1.566-1.421,0.252-3.051-1.885-2.95c-2.134,0.103-0.1,2.442-3.673,2.037c-3.572-0.408-5.108-2.976-5.108-2.976
				c0,5.643,4.574,10.216,10.22,10.216c0,0,0.697-1.55-0.425-2.361C43.491,43.149,43.9,41.421,45.478,39.999 M55.79,36.448
				c0,6.093-4.936,11.03-11.033,11.03c-6.088,0-11.026-4.938-11.026-11.03c0-6.09,4.938-11.031,11.026-11.031
				C50.854,25.417,55.79,30.358,55.79,36.448"/>
		</g>
	</g>
</g>
</svg>
