<?xml version="1.0" encoding="utf-8"?>
<!-- Generator: Adobe Illustrator 15.1.0, SVG Export Plug-In . SVG Version: 6.00 Build 0)  -->
<!DOCTYPE svg PUBLIC "-//W3C//DTD SVG 1.1//EN" "http://www.w3.org/Graphics/SVG/1.1/DTD/svg11.dtd">
<svg version="1.1" id="Layer_1" xmlns="http://www.w3.org/2000/svg" xmlns:xlink="http://www.w3.org/1999/xlink" x="0px" y="0px"
	 width="50px" height="56px" viewBox="0 0 50 56" enable-background="new 0 0 50 56" xml:space="preserve">
<polygon fill="#FFFFFF" points="11.561,4.985 3.393,6.005 2.259,8.16 2.598,47.408 3.506,50.301 16.438,50.584 24.889,50.699 
	33.794,50.584 35.553,48.543 35.438,43.439 39.578,46.105 49.164,37.768 45.761,29.998 40.713,23.985 38.386,22.34 35.892,23.133 
	34.983,20.865 34.869,5.95 27.78,5.721 23.924,4.757 "/>
<g>
	<defs>
		<rect id="SVGID_1_" x="0.881" y="4.006" width="49.119" height="47.111"/>
	</defs>
	<clipPath id="SVGID_2_">
		<use xlink:href="#SVGID_1_"  overflow="visible"/>
	</clipPath>
	<path clip-path="url(#SVGID_2_)" fill-rule="evenodd" clip-rule="evenodd" fill="#1D1D1B" d="M37.793,24.858L37.793,24.858
		l2.518,2.938l-1.12,0.96l-2.517-2.939l-0.009-0.012l-0.747-0.872l0.003-0.003l-0.756-0.881l-0.003,0.002
		c-0.196-0.23-0.469-0.358-0.751-0.381v0.001c-0.28-0.021-0.571,0.062-0.799,0.259c-0.231,0.197-0.357,0.47-0.381,0.751
		c-0.021,0.282,0.063,0.571,0.259,0.801l3.343,3.903l-1.12,0.957l-3.341-3.902l-0.61-0.712l-0.61-0.711
		c-0.194-0.229-0.469-0.357-0.75-0.381c-0.281-0.021-0.571,0.064-0.801,0.261c-0.229,0.195-0.357,0.469-0.379,0.751
		c-0.021,0.28,0.062,0.57,0.259,0.799l4.152,4.85l-1.119,0.957l-4.153-4.847l-2.607-3.046l-1.147-1.341
		c-0.196-0.228-0.469-0.356-0.75-0.379c-0.282-0.021-0.572,0.063-0.802,0.261l-0.001-0.003c-0.228,0.194-0.356,0.468-0.377,0.752
		c-0.022,0.282,0.062,0.571,0.259,0.801l9.749,11.384l1.734,2.025l-2.528-0.848l-4.348-1.459c-0.363-0.121-0.747-0.086-1.068,0.074
		c-0.323,0.164-0.587,0.445-0.71,0.811l-0.003,0.004c-0.119,0.363-0.078,0.742,0.081,1.064c0.16,0.324,0.441,0.586,0.807,0.707
		l5.623,1.889l0.104,0.035l0.091,0.066l6.919,4.975l8.946-7.66c-0.402-1.369-0.955-2.781-1.688-4.24
		c-0.818-1.629-1.861-3.32-3.171-5.083l-0.042-0.056l-0.035-0.079c-0.013-0.028-0.031-0.062-0.057-0.1
		c-0.015-0.024-0.038-0.057-0.069-0.092l-3.805-4.443c-0.161-0.189-0.399-0.29-0.651-0.299c-0.271-0.009-0.562,0.088-0.802,0.293
		l-0.001-0.003c-0.239,0.204-0.379,0.477-0.411,0.75C37.569,24.417,37.632,24.668,37.793,24.858 M4.18,4.006h29.33
		c1.815,0,3.299,1.485,3.299,3.299v15.235c0.077-0.084,0.159-0.161,0.246-0.238l-0.003-0.001l0.001-0.001
		c0.527-0.451,1.184-0.665,1.813-0.644c0.652,0.023,1.276,0.296,1.718,0.811l3.806,4.444c0.064,0.076,0.128,0.16,0.188,0.255
		c0.04,0.061,0.077,0.129,0.111,0.199c1.344,1.816,2.421,3.562,3.269,5.25c0.859,1.713,1.485,3.363,1.92,4.965L50,38.033
		l-0.353,0.301l-9.74,8.34l-0.438,0.377l-0.472-0.34l-2.189-1.574v2.682c0,1.814-1.483,3.299-3.299,3.299H4.18
		c-1.814,0-3.299-1.484-3.299-3.299V7.305C0.881,5.492,2.365,4.006,4.18,4.006 M33.543,22.316c-0.318,0.101-0.622,0.265-0.891,0.494
		c-0.311,0.267-0.54,0.591-0.69,0.942c-0.418-0.347-0.928-0.544-1.447-0.585c-0.657-0.051-1.334,0.148-1.872,0.608
		c-0.3,0.257-0.524,0.567-0.675,0.904l-1.095-1.277l-1.147-1.34c-0.461-0.539-1.101-0.84-1.757-0.891
		c-0.657-0.051-1.335,0.148-1.872,0.608l0.001,0.002c-0.541,0.463-0.842,1.101-0.892,1.756c-0.05,0.657,0.146,1.334,0.608,1.871
		l8.018,9.362l-1.821-0.611c-0.753-0.252-1.536-0.174-2.196,0.154c-0.594,0.295-1.089,0.797-1.364,1.449l-0.013,0.01l-0.066,0.197
		c-0.252,0.75-0.175,1.537,0.154,2.193c0.327,0.658,0.904,1.191,1.655,1.445l5.519,1.854l1.844,1.324v2.527H4.263V8.287h29.28
		V22.316z M44.688,27.366c0.015,0.028,0.028,0.055,0.04,0.085L44.688,27.366z M17.552,46.256c-0.538,0-0.978,0.441-0.978,0.979
		v2.115c0,0.537,0.439,0.979,0.978,0.979h3.304c0.539,0,0.979-0.441,0.979-0.979v-2.115c0-0.537-0.439-0.979-0.979-0.979H17.552z
		 M14.104,5.505c-0.479,0-0.868,0.391-0.868,0.868c0,0.479,0.39,0.87,0.868,0.87h9.147c0.478,0,0.869-0.392,0.869-0.87
		c0-0.478-0.392-0.868-0.869-0.868H14.104z"/>
</g>
</svg>
