<?xml version="1.0" encoding="utf-8"?>
<!-- Generator: Adobe Illustrator 15.1.0, SVG Export Plug-In . SVG Version: 6.00 Build 0)  -->
<!DOCTYPE svg PUBLIC "-//W3C//DTD SVG 1.1//EN" "http://www.w3.org/Graphics/SVG/1.1/DTD/svg11.dtd">
<svg version="1.1" id="Layer_1" xmlns="http://www.w3.org/2000/svg" xmlns:xlink="http://www.w3.org/1999/xlink" x="0px" y="0px"
	 width="32px" height="32px" viewBox="0 0 32 32" enable-background="new 0 0 32 32" xml:space="preserve">
<g>
	<defs>
		<rect id="SVGID_1_" x="2.27" y="1.064" width="26.685" height="29.936"/>
	</defs>
	<clipPath id="SVGID_2_">
		<use xlink:href="#SVGID_1_"  overflow="visible"/>
	</clipPath>
	<path clip-path="url(#SVGID_2_)" fill="#FFFFFF" d="M28.781,11.999c0,5.927-4.805,10.732-10.732,10.732
		c-5.928,0-10.734-4.806-10.734-10.732c0-5.929,4.806-10.734,10.734-10.734C23.977,1.265,28.781,6.07,28.781,11.999"/>
	<path clip-path="url(#SVGID_2_)" fill="#1D1D1B" d="M26.078,11.873c0-4.425-3.582-8.009-8.004-8.009
		c-4.424,0-8.01,3.584-8.01,8.009c0,4.423,3.586,8.006,8.01,8.006C22.496,19.879,26.078,16.296,26.078,11.873 M26.527,18.836
		c-3.441,4.256-9.426,5.243-14.005,2.548c-0.021,0.412-0.164,0.825-0.445,1.172L5.85,30.253c-0.698,0.863-1.967,1-2.83,0.299
		c-0.867-0.699-1-1.965-0.301-2.833l6.226-7.697c0.28-0.347,0.653-0.573,1.054-0.679C6.404,15.429,6.121,9.37,9.561,5.114
		c3.789-4.686,10.662-5.411,15.343-1.623C29.588,7.28,30.316,14.15,26.527,18.836"/>
	<path clip-path="url(#SVGID_2_)" fill="#1D1D1B" d="M19.809,10.979c0.492,0.273,0.877-0.71,1.697-0.326
		c0.816,0.383,0.023,0.246,0.381,0.6c0.982,0.986,1.547,0.791,1.547,0.791c0-3.035-2.457-5.495-5.492-5.495
		c0,0-0.375,0.825,0.449,1.044c0.818,0.219,1.141,1.215,0.654,1.704c-0.49,0.485-0.738-0.174-1.189,0.373
		c-0.451,0.545-0.07,1.53,0.479,1.53C18.881,11.199,19.318,10.707,19.809,10.979 M18.457,13.782
		c0.844-0.765,0.137-1.642-1.012-1.586c-1.148,0.055-0.053,1.312-1.974,1.095c-1.921-0.22-2.748-1.601-2.748-1.601
		c0,3.033,2.46,5.492,5.496,5.492c0,0,0.375-0.833-0.229-1.271C17.393,15.476,17.611,14.547,18.457,13.782 M24.004,11.873
		c0,3.275-2.654,5.93-5.932,5.93c-3.276,0-5.929-2.654-5.929-5.93s2.653-5.931,5.929-5.931C21.35,5.942,24.004,8.598,24.004,11.873"
		/>
</g>
</svg>
