<?xml version="1.0" encoding="utf-8"?>
<!-- Generator: Adobe Illustrator 15.1.0, SVG Export Plug-In . SVG Version: 6.00 Build 0)  -->
<!DOCTYPE svg PUBLIC "-//W3C//DTD SVG 1.1//EN" "http://www.w3.org/Graphics/SVG/1.1/DTD/svg11.dtd">
<svg version="1.1" id="Layer_1" xmlns="http://www.w3.org/2000/svg" xmlns:xlink="http://www.w3.org/1999/xlink" x="0px" y="0px"
	 width="400px" height="45px" viewBox="0 0 400 45" enable-background="new 0 0 400 45" xml:space="preserve">
<g opacity="0.3">
	<path fill="#FFFFFF" d="M333.526,15.19c-7.602-1.389-14.811-1.136-22.237,3.78c0.047,0.264,0.088,0.551,0.119,0.855
		c0.1,0.894,0.147,1.905,0.147,2.844c0,0.938-0.049,1.949-0.147,2.847c-0.031,0.301-0.072,0.59-0.119,0.854
		c7.428,4.918,14.637,5.168,22.237,3.782c10.885-2.219,22.021,2.714,32.913,0.869c2.502-0.369,12.23-2.701,12.23-7.106V22.67v-1.247
		c0-4.396-9.729-6.733-12.23-7.101C355.547,12.475,344.411,17.404,333.526,15.19"/>
	<path fill="#FFFFFF" d="M309.453,27.641c0.135-0.303,0.257-0.748,0.347-1.27c0.048-0.266,0.086-0.553,0.119-0.855
		c0.101-0.896,0.151-1.908,0.151-2.846c0-0.939-0.052-1.951-0.151-2.844c-0.033-0.305-0.071-0.592-0.119-0.855
		c-0.09-0.521-0.212-0.969-0.347-1.264c-1.601-3.714-7.078-1.822-9.057,0.971v0.633v0.211v7.139
		C302.372,29.46,307.85,31.352,309.453,27.641"/>
	<path fill="#FFFFFF" d="M24.152,14.321c-2.503,0.368-12.235,2.707-12.235,7.101v1.248v1.248c0,4.402,9.732,6.734,12.235,7.105
		c10.891,1.843,22.026-3.088,32.912-0.869c7.6,1.387,14.81,1.135,22.239-3.783c-0.049-0.266-0.089-0.555-0.123-0.855
		c-0.1-0.896-0.145-1.906-0.145-2.846c0-0.939,0.045-1.951,0.145-2.844c0.034-0.304,0.074-0.591,0.123-0.855
		c-7.429-4.916-14.639-5.168-22.239-3.78C46.178,17.404,35.043,12.475,24.152,14.321"/>
	<path fill="#FFFFFF" d="M81.143,27.641c1.599,3.711,7.078,1.819,9.052-0.979v-7.137v-0.213v-0.633
		c-1.977-2.793-7.456-4.685-9.052-0.971c-0.145,0.295-0.258,0.743-0.35,1.264c-0.048,0.264-0.086,0.553-0.123,0.855
		c-0.099,0.893-0.144,1.904-0.144,2.844c0,0.938,0.045,1.95,0.144,2.846c0.037,0.303,0.075,0.59,0.123,0.855
		C80.885,26.893,80.998,27.338,81.143,27.641"/>
	<path fill="#FFFFFF" d="M91.63,16.166v13.016c0,5.06,2.067,9.161,4.616,9.161h198.473c2.549,0,4.613-4.103,4.613-9.161V16.166
		c0-5.063-2.064-9.166-4.613-9.166H96.246C93.697,7,91.63,11.103,91.63,16.166"/>
</g>
</svg>
