<?xml version="1.0" encoding="utf-8"?>
<!-- Generator: Adobe Illustrator 15.1.0, SVG Export Plug-In . SVG Version: 6.00 Build 0)  -->
<!DOCTYPE svg PUBLIC "-//W3C//DTD SVG 1.1//EN" "http://www.w3.org/Graphics/SVG/1.1/DTD/svg11.dtd">
<svg version="1.1" id="Layer_1" xmlns="http://www.w3.org/2000/svg" xmlns:xlink="http://www.w3.org/1999/xlink" x="0px" y="0px"
	 width="100px" height="100px" viewBox="0 0 100 100" enable-background="new 0 0 100 100" xml:space="preserve">
<path fill="#3C657C" d="M13.381,1.59c7.041,0,66.908-1.291,71.999-1.291s11.365,2.365,11.365,11.389s-7.397,46.414-9.384,54.794
	c-1.981,8.377-8.021,10.742-11.008,10.742c-2.985,0-22.377-1.506-22.377-1.506L59.395,100L34.495,74.859
	c0,0-17.406-1.01-21.113-1.293c-3.706-0.277-7.22-5.367-8.119-11.17C4.36,56.596,3.905,14.67,4.36,12.547
	C4.813,10.422,6.343,1.59,13.381,1.59"/>
<text transform="matrix(1.0612 -0.0657 0.0699 0.9976 15.7217 50.7842)" fill="#FFFFFF" font-family="'AvenirNextCondensed-DemiBold'" font-size="33.2116">Trivia</text>
</svg>
